<svg width="54" height="54" viewBox="0 0 54 54" fill="none" xmlns="http://www.w3.org/2000/svg">
<path d="M27 0C12.096 0 0 12.096 0 27C0 41.904 12.096 54 27 54C41.904 54 54 41.904 54 27C54 12.096 41.904 0 27 0ZM27.162 45.9V40.473H27C23.544 40.473 20.088 39.15 17.442 36.531C15.2443 34.331 13.8724 31.4405 13.5576 28.3468C13.2429 25.2531 14.0045 22.1456 15.714 19.548L18.684 22.518C16.767 26.109 17.253 30.645 20.277 33.669C22.167 35.559 24.651 36.45 27.135 36.396V30.618L34.776 38.259L27.162 45.9ZM38.259 34.452L35.289 31.482C37.206 27.891 36.72 23.355 33.696 20.331C32.8195 19.4473 31.7763 18.7464 30.6269 18.269C29.4774 17.7916 28.2446 17.5472 27 17.55H26.838V23.355L19.197 15.741L26.838 8.1V13.554C30.348 13.5 33.885 14.769 36.558 17.469C41.148 22.059 41.715 29.214 38.259 34.452Z" fill="#30383F"/>
</svg>
